<?xml version="1.0" standalone="no"?>
<!DOCTYPE svg PUBLIC "-//W3C//DTD SVG 20010904//EN"
 "http://www.w3.org/TR/2001/REC-SVG-20010904/DTD/svg10.dtd">
<svg version="1.0" xmlns="http://www.w3.org/2000/svg"
 width="244.000000pt" height="208.000000pt" viewBox="0 0 244.000000 208.000000"
 preserveAspectRatio="xMidYMid meet">

<g transform="translate(0.000000,208.000000) scale(0.100000,-0.100000)"
fill="#000000" stroke="none">
<path d="M388 1923 c-22 -25 -77 -136 -100 -203 -45 -132 -43 -269 7 -378 28
-60 114 -156 197 -217 l57 -43 -87 -27 c-48 -15 -115 -40 -148 -56 -67 -31
-184 -113 -184 -128 0 -21 82 -110 132 -144 125 -82 267 -114 573 -127 121 -6
232 -12 247 -16 24 -5 28 -11 35 -62 15 -106 8 -290 -16 -385 -23 -98 -25
-117 -12 -117 5 0 16 30 25 67 61 239 206 514 391 738 150 181 182 203 384
266 271 84 307 98 366 151 44 38 73 93 81 152 l6 43 -88 17 c-157 29 -284 39
-439 33 -237 -9 -346 -49 -461 -169 -70 -73 -106 -131 -128 -207 -16 -56 -20
-147 -7 -191 6 -19 1 -32 -20 -57 -47 -54 -49 -122 -15 -353 l18 -115 -26 -55
-26 -55 0 101 c0 56 -6 139 -14 185 -27 160 -27 176 -9 301 12 81 18 181 17
293 0 158 -2 176 -27 252 -88 262 -368 483 -657 518 -46 6 -58 4 -72 -12z"/>
</g>
</svg>
